<?xml version="1.0" encoding="utf-8"?>
<!-- Generator: Adobe Illustrator 26.2.1, SVG Export Plug-In . SVG Version: 6.00 Build 0)  -->
<svg version="1.1" id="Layer_1" xmlns="http://www.w3.org/2000/svg" xmlns:xlink="http://www.w3.org/1999/xlink" x="0px" y="0px"
	 viewBox="0 0 21.3 15" style="enable-background:new 0 0 21.3 15;" xml:space="preserve">
<style type="text/css">
	.st0{fill:#1D1D1B;}
</style>
<path id="Icon_awesome-youtube" class="st0" d="M20.9,2.3c-0.2-0.9-1-1.6-1.9-1.9C17.3,0,10.7,0,10.7,0S4,0,2.3,0.4
	c-0.9,0.3-1.6,1-1.9,1.9C0.1,4.1,0,5.8,0,7.5c0,1.7,0.1,3.5,0.4,5.2c0.2,0.9,1,1.6,1.9,1.9C4,15,10.7,15,10.7,15s6.7,0,8.3-0.4
	c0.9-0.2,1.6-1,1.9-1.9c0.3-1.7,0.5-3.4,0.4-5.2C21.3,5.8,21.2,4,20.9,2.3L20.9,2.3z M8.5,10.7V4.3l5.6,3.2L8.5,10.7z"/>
</svg>
